<svg width="34" height="34" viewBox="0 0 34 34" fill="none" xmlns="http://www.w3.org/2000/svg">
<path d="M12.0425 15.5833V19.8333M9.91753 17.7083H14.1675M3.71678 21.4186L2.94753 24.6174C2.40778 26.8657 3.84428 29.1153 6.15486 29.6409C8.10419 30.0829 10.1088 29.1564 10.9899 27.4083L11.1713 27.047C11.9788 25.4419 13.6561 24.4233 15.4935 24.4233H19.8342M22.8304 27.047L23.0118 27.4083C23.8929 29.1564 25.8975 30.0829 27.8469 29.6395C30.1574 29.1153 31.5939 26.8657 31.0542 24.6174L29.5171 18.2183C28.6487 14.6016 28.2138 12.7925 26.9813 11.6082C26.6687 11.3069 26.3263 11.0424 25.9542 10.8148C24.4865 9.91667 22.5783 9.91667 18.7618 9.91667H15.2399C11.4234 9.91667 9.51519 9.91667 8.04753 10.8148C7.67542 11.0424 7.33305 11.3069 7.02044 11.6082C6.13219 12.4624 5.65903 13.6397 5.13911 15.5833M17.0009 9.91667V8.5C17.0009 8.12428 17.1501 7.76394 17.4158 7.49827C17.6815 7.23259 18.0418 7.08333 18.4175 7.08333H19.8342C20.2099 7.08333 20.5703 6.93408 20.8359 6.6684C21.1016 6.40272 21.2509 6.04239 21.2509 5.66667V4.25" stroke="black" stroke-width="1.8" stroke-linecap="round"/>
<path d="M22.6673 15.5837C22.6673 15.9594 22.5181 16.3197 22.2524 16.5854C21.9867 16.8511 21.6264 17.0003 21.2507 17.0003C20.8749 17.0003 20.5146 16.8511 20.2489 16.5854C19.9832 16.3197 19.834 15.9594 19.834 15.5837C19.834 15.2079 19.9832 14.8476 20.2489 14.5819C20.5146 14.3162 20.8749 14.167 21.2507 14.167C21.6264 14.167 21.9867 14.3162 22.2524 14.5819C22.5181 14.8476 22.6673 15.2079 22.6673 15.5837ZM25.5007 19.8337C25.5007 20.2094 25.3514 20.5697 25.0857 20.8354C24.82 21.1011 24.4597 21.2503 24.084 21.2503C23.7083 21.2503 23.3479 21.1011 23.0822 20.8354C22.8166 20.5697 22.6673 20.2094 22.6673 19.8337C22.6673 19.4579 22.8166 19.0976 23.0822 18.8319C23.3479 18.5662 23.7083 18.417 24.084 18.417C24.4597 18.417 24.82 18.5662 25.0857 18.8319C25.3514 19.0976 25.5007 19.4579 25.5007 19.8337Z" fill="black"/>
</svg>
