<svg width="28" height="29" viewBox="0 0 28 29" fill="none" xmlns="http://www.w3.org/2000/svg">
<g clip-path="url(#clip0_1358_1760)">
<path d="M27.4101 25.0813C27.7857 25.4569 27.9967 25.9663 27.9967 26.4974C27.9967 27.0285 27.7857 27.5379 27.4101 27.9134C27.0345 28.289 26.5251 28.5 25.9939 28.5C25.4628 28.5 24.9534 28.289 24.5778 27.9134L14 17.333L3.41888 27.9101C3.0433 28.2857 2.53389 28.4967 2.00273 28.4967C1.47158 28.4967 0.962173 28.2857 0.586588 27.9101C0.211002 27.5346 5.59666e-09 27.0252 0 26.4941C-5.59666e-09 25.9629 0.211002 25.4536 0.586588 25.078L11.1677 14.5008L0.589919 3.92034C0.214334 3.54478 0.00333218 3.03541 0.00333219 2.50428C0.00333219 1.97315 0.214334 1.46378 0.589919 1.08822C0.965505 0.712655 1.47491 0.501666 2.00607 0.501666C2.53722 0.501666 3.04663 0.712655 3.42221 1.08822L14 11.6687L24.5811 1.08655C24.9567 0.710989 25.4661 0.5 25.9973 0.5C26.5284 0.5 27.0378 0.710989 27.4134 1.08655C27.789 1.46212 28 1.97149 28 2.50261C28 3.03374 27.789 3.54312 27.4134 3.91868L16.8323 14.5008L27.4101 25.0813Z" fill="#FFFDF9"/>
</g>
<defs>
<clipPath id="clip0_1358_1760">
<rect width="28" height="29" fill="white"/>
</clipPath>
</defs>
</svg>
